<?xml version="1.0" encoding="UTF-8"?>
<!DOCTYPE svg PUBLIC "-//W3C//DTD SVG 1.1//EN" "http://www.w3.org/Graphics/SVG/1.1/DTD/svg11.dtd">
<svg xmlns="http://www.w3.org/2000/svg" version="1.1" width="3464px" height="3464px" style="shape-rendering:geometricPrecision; text-rendering:geometricPrecision; image-rendering:optimizeQuality; fill-rule:evenodd; clip-rule:evenodd" xmlns:xlink="http://www.w3.org/1999/xlink">
<g><path style="opacity:0.909" fill="#fefefe" d="M 2062.5,1511.5 C 2099.64,1511.38 2132.14,1523.38 2160,1547.5C 2158.8,1556.77 2155.8,1565.44 2151,1573.5C 2115.64,1541.87 2075.14,1532.7 2029.5,1546C 2007.09,1555.41 1992.92,1571.91 1987,1595.5C 1983.2,1612.69 1983.87,1629.69 1989,1646.5C 1994.52,1661.03 2004.02,1672.19 2017.5,1680C 2026.56,1684.86 2035.9,1689.2 2045.5,1693C 2068.81,1700.55 2091.81,1708.88 2114.5,1718C 2160.24,1739.64 2179.74,1775.8 2173,1826.5C 2165.28,1880.22 2134.44,1910.39 2080.5,1917C 2031.02,1921.62 1989.52,1905.79 1956,1869.5C 1954.13,1867.48 1952.97,1865.15 1952.5,1862.5C 1954.43,1855.96 1956.93,1849.63 1960,1843.5C 1960.35,1841.82 1961.35,1840.82 1963,1840.5C 2000.2,1884.12 2046.7,1898.62 2102.5,1884C 2133.1,1870.55 2148.77,1847.05 2149.5,1813.5C 2150.11,1788.55 2140.44,1768.72 2120.5,1754C 2112.82,1749.16 2104.82,1744.82 2096.5,1741C 2075.44,1733.87 2054.44,1726.53 2033.5,1719C 1977.76,1699.54 1953.59,1660.38 1961,1601.5C 1967.42,1556.09 1992.58,1527.26 2036.5,1515C 2045.27,1513.5 2053.94,1512.33 2062.5,1511.5 Z"/></g>
<g><path style="opacity:0.905" fill="#fefefe" d="M 2500.5,1511.5 C 2547.71,1510.86 2585.88,1528.86 2615,1565.5C 2615.67,1566.5 2615.67,1567.5 2615,1568.5C 2610.69,1575.47 2605.69,1581.8 2600,1587.5C 2569.43,1549.66 2529.93,1534.83 2481.5,1543C 2445.48,1551.7 2417.98,1571.87 2399,1603.5C 2374.74,1646.04 2365.41,1691.71 2371,1740.5C 2375.09,1779.33 2389.09,1814 2413,1844.5C 2452.34,1888.13 2499.51,1899.63 2554.5,1879C 2568.01,1872.83 2579.84,1864.33 2590,1853.5C 2590.5,1807.5 2590.67,1761.5 2590.5,1715.5C 2598.42,1715.18 2606.25,1715.52 2614,1716.5C 2614.67,1766.5 2614.67,1816.5 2614,1866.5C 2581.03,1904.83 2539.2,1921.67 2488.5,1917C 2451.36,1912.18 2420.53,1895.68 2396,1867.5C 2371.54,1838.56 2356.2,1805.23 2350,1767.5C 2338.54,1705.86 2346.87,1647.19 2375,1591.5C 2392.37,1562.13 2416.2,1539.63 2446.5,1524C 2463.9,1516.65 2481.9,1512.48 2500.5,1511.5 Z"/></g>
<g><path style="opacity:0.68" fill="#cecece" d="M 604.5,1513.5 C 604.209,1514.65 603.376,1515.32 602,1515.5C 547.519,1514.51 493.019,1514.18 438.5,1514.5C 464.825,1513.17 491.492,1512.5 518.5,1512.5C 547.182,1512.53 575.849,1512.86 604.5,1513.5 Z"/></g>
<g><path style="opacity:0.681" fill="#c6c6c6" d="M 950.5,1513.5 C 926.241,1514.49 901.908,1514.82 877.5,1514.5C 889.314,1513.17 901.481,1512.5 914,1512.5C 926.338,1512.5 938.505,1512.83 950.5,1513.5 Z"/></g>
<g><path style="opacity:0.988" fill="#fdfdfd" d="M 604.5,1513.5 C 606.833,1513.5 609.167,1513.5 611.5,1513.5C 611.281,1514.68 611.614,1515.68 612.5,1516.5C 615.816,1516.71 619.15,1516.71 622.5,1516.5C 622.833,1516.5 623.167,1516.5 623.5,1516.5C 629.808,1519.41 636.474,1521.41 643.5,1522.5C 645.185,1524.82 647.519,1525.82 650.5,1525.5C 652.181,1527.01 654.181,1528.01 656.5,1528.5C 656.833,1528.5 657.167,1528.5 657.5,1528.5C 659.358,1532 662.358,1534 666.5,1534.5C 666.833,1534.5 667.167,1534.5 667.5,1534.5C 672.344,1539.85 677.51,1545.18 683,1550.5C 684.282,1553.79 686.448,1556.12 689.5,1557.5C 692.874,1561.58 695.207,1566.25 696.5,1571.5C 696.726,1575.29 697.56,1578.96 699,1582.5C 699.498,1584.54 700.665,1585.88 702.5,1586.5C 702.5,1586.83 702.5,1587.17 702.5,1587.5C 701.523,1590.29 701.19,1593.29 701.5,1596.5C 702.5,1596.5 703.5,1596.5 704.5,1596.5C 704.5,1598.5 704.5,1600.5 704.5,1602.5C 703.167,1610.83 703.167,1619.17 704.5,1627.5C 704.015,1636.08 702.349,1644.41 699.5,1652.5C 690.19,1653.5 680.857,1653.83 671.5,1653.5C 672.816,1647.52 674.149,1641.52 675.5,1635.5C 677.067,1634.32 677.901,1632.65 678,1630.5C 678.667,1621.83 678.667,1613.17 678,1604.5C 677.495,1601.14 676.328,1598.14 674.5,1595.5C 671.95,1584.48 666.95,1574.81 659.5,1566.5C 658.061,1561.39 654.727,1558.39 649.5,1557.5C 639.879,1550.7 629.213,1546.03 617.5,1543.5C 617.423,1542.25 616.756,1541.42 615.5,1541C 608.214,1539.81 600.881,1539.31 593.5,1539.5C 550.337,1538.5 507.003,1538.17 463.5,1538.5C 463.5,1577.17 463.5,1615.83 463.5,1654.5C 455.167,1654.5 446.833,1654.5 438.5,1654.5C 438.5,1607.83 438.5,1561.17 438.5,1514.5C 493.019,1514.18 547.519,1514.51 602,1515.5C 603.376,1515.32 604.209,1514.65 604.5,1513.5 Z"/></g>
<g><path style="opacity:0.38" fill="#747474" d="M 816.5,1512.5 C 808.35,1513.49 800.017,1513.83 791.5,1513.5C 791.5,1646.5 791.5,1779.5 791.5,1912.5C 790.167,1846.34 789.5,1779.84 789.5,1713C 789.667,1646.5 789.833,1580 790,1513.5C 798.749,1512.52 807.582,1512.18 816.5,1512.5 Z"/></g>
<g><path style="opacity:0.993" fill="#fdfdfd" d="M 816.5,1512.5 C 817.499,1573.66 817.832,1635 817.5,1696.5C 831.167,1696.5 844.833,1696.5 858.5,1696.5C 858.5,1705.17 858.5,1713.83 858.5,1722.5C 844.087,1722.17 830.42,1722.5 817.5,1723.5C 817.5,1786.5 817.5,1849.5 817.5,1912.5C 808.833,1912.5 800.167,1912.5 791.5,1912.5C 791.5,1779.5 791.5,1646.5 791.5,1513.5C 800.017,1513.83 808.35,1513.49 816.5,1512.5 Z"/></g>
<g><path style="opacity:0.997" fill="#fcfcfc" d="M 950.5,1513.5 C 955.167,1513.5 959.833,1513.5 964.5,1513.5C 965.848,1515.48 967.848,1516.65 970.5,1517C 978.202,1518.62 985.869,1520.45 993.5,1522.5C 994.107,1522.38 994.44,1522.04 994.5,1521.5C 995.167,1521.5 995.5,1521.83 995.5,1522.5C 999.037,1526.02 1003.37,1528.02 1008.5,1528.5C 1008.83,1528.5 1009.17,1528.5 1009.5,1528.5C 1009.41,1529.5 1009.75,1530.33 1010.5,1531C 1014.39,1533.45 1018.39,1535.61 1022.5,1537.5C 1024.75,1538.08 1026.42,1539.41 1027.5,1541.5C 1031.48,1546.32 1035.31,1551.32 1039,1556.5C 1039.67,1557.25 1040.5,1557.59 1041.5,1557.5C 1041.34,1558.87 1041.51,1560.21 1042,1561.5C 1043.57,1564.11 1045.41,1566.44 1047.5,1568.5C 1049.97,1577.05 1052.64,1585.39 1055.5,1593.5C 1055.5,1593.83 1055.5,1594.17 1055.5,1594.5C 1054.86,1595.1 1054.53,1595.93 1054.5,1597C 1054.75,1604.88 1055.75,1612.38 1057.5,1619.5C 1057.5,1621.83 1057.5,1624.17 1057.5,1626.5C 1055.75,1627.98 1054.59,1629.98 1054,1632.5C 1053.04,1641.82 1050.87,1650.82 1047.5,1659.5C 1047.54,1660.42 1047.88,1661.08 1048.5,1661.5C 1047.65,1663.88 1046.32,1665.88 1044.5,1667.5C 1040.36,1672.48 1036.36,1677.65 1032.5,1683C 1032.73,1683.4 1033.06,1683.57 1033.5,1683.5C 1033.17,1684.5 1032.5,1685.17 1031.5,1685.5C 1028.17,1686.83 1025.83,1689.17 1024.5,1692.5C 1020.78,1695.55 1016.78,1698.22 1012.5,1700.5C 1007.84,1701.33 1003.5,1703 999.5,1705.5C 998.167,1706.17 998.167,1706.83 999.5,1707.5C 1022.99,1712.56 1042.32,1724.23 1057.5,1742.5C 1059.52,1744.53 1061.19,1746.86 1062.5,1749.5C 1066.28,1761.28 1069.78,1773.28 1073,1785.5C 1073.38,1786.06 1073.88,1786.39 1074.5,1786.5C 1074.5,1786.83 1074.5,1787.17 1074.5,1787.5C 1074.62,1797.17 1074.28,1807 1073.5,1817C 1073.57,1818.99 1074.24,1820.49 1075.5,1821.5C 1074.31,1826.8 1073.31,1832.13 1072.5,1837.5C 1071.62,1837.37 1070.96,1837.7 1070.5,1838.5C 1070.07,1842.13 1068.9,1845.46 1067,1848.5C 1066.24,1850.07 1066.4,1851.4 1067.5,1852.5C 1067.5,1853.17 1067.17,1853.5 1066.5,1853.5C 1065.12,1854.57 1063.95,1855.91 1063,1857.5C 1060.89,1861.42 1059.06,1865.42 1057.5,1869.5C 1055.47,1870.54 1054.14,1872.21 1053.5,1874.5C 1053.17,1875.5 1052.5,1876.17 1051.5,1876.5C 1049.09,1876.69 1048.09,1878.03 1048.5,1880.5C 1047.56,1881.97 1046.23,1882.97 1044.5,1883.5C 1042.25,1884.08 1040.58,1885.41 1039.5,1887.5C 1039.17,1888.5 1038.5,1889.17 1037.5,1889.5C 1036.45,1889.35 1035.45,1889.52 1034.5,1890C 1032.6,1891.42 1030.94,1892.92 1029.5,1894.5C 1027.36,1896.07 1025.03,1897.4 1022.5,1898.5C 1017.34,1899.41 1012.34,1900.91 1007.5,1903C 1006.06,1903.38 1005.06,1904.21 1004.5,1905.5C 1002.96,1906.3 1001.29,1906.63 999.5,1906.5C 995.51,1907 991.51,1907.5 987.5,1908C 986.584,1908.28 985.918,1908.78 985.5,1909.5C 985.167,1909.5 984.833,1909.5 984.5,1909.5C 981.291,1909.41 978.125,1909.74 975,1910.5C 973.624,1910.68 972.791,1911.35 972.5,1912.5C 940.833,1912.5 909.167,1912.5 877.5,1912.5C 877.5,1906.5 877.5,1900.5 877.5,1894.5C 878.468,1892.39 878.802,1890.06 878.5,1887.5C 905.169,1887.67 931.835,1887.5 958.5,1887C 965.21,1886.28 971.876,1885.28 978.5,1884C 979.416,1883.72 980.082,1883.22 980.5,1882.5C 988.587,1880.81 996.587,1878.81 1004.5,1876.5C 1006.2,1876.66 1007.87,1876.49 1009.5,1876C 1020.79,1870.05 1030.29,1861.88 1038,1851.5C 1040.55,1848.3 1042.05,1844.64 1042.5,1840.5C 1043.84,1834.81 1045.18,1829.15 1046.5,1823.5C 1048.07,1822.32 1048.9,1820.65 1049,1818.5C 1049.82,1811.65 1049.65,1804.99 1048.5,1798.5C 1048.5,1797.5 1048.5,1796.5 1048.5,1795.5C 1047.88,1786.11 1046.22,1776.94 1043.5,1768C 1043.16,1766.97 1042.5,1766.47 1041.5,1766.5C 1039.75,1765.34 1038.75,1763.67 1038.5,1761.5C 1037.45,1757.74 1035.62,1754.41 1033,1751.5C 1031.22,1749.21 1029.06,1747.54 1026.5,1746.5C 1013.46,1736.16 998.795,1729.49 982.5,1726.5C 976.871,1724.06 970.871,1723.06 964.5,1723.5C 964.5,1714.17 964.5,1704.83 964.5,1695.5C 968.116,1694.69 971.449,1693.35 974.5,1691.5C 974.833,1691.5 975.167,1691.5 975.5,1691.5C 983.578,1690.69 990.578,1687.69 996.5,1682.5C 998.312,1682.23 999.978,1681.56 1001.5,1680.5C 1003.91,1679.09 1005.57,1677.09 1006.5,1674.5C 1006.83,1674.5 1007.17,1674.5 1007.5,1674.5C 1013.47,1670.99 1017.8,1665.99 1020.5,1659.5C 1020.38,1658.89 1020.04,1658.56 1019.5,1658.5C 1019.5,1657.83 1019.83,1657.5 1020.5,1657.5C 1023.61,1655.36 1024.95,1652.36 1024.5,1648.5C 1024.5,1648.17 1024.5,1647.83 1024.5,1647.5C 1026.28,1646.43 1027.45,1644.76 1028,1642.5C 1028.99,1637.88 1029.49,1633.22 1029.5,1628.5C 1029.71,1619.8 1029.38,1611.13 1028.5,1602.5C 1028.44,1598.78 1027.94,1595.11 1027,1591.5C 1026.76,1589.88 1025.93,1588.88 1024.5,1588.5C 1023.68,1586.23 1023.01,1583.89 1022.5,1581.5C 1021.38,1577.53 1019.55,1573.86 1017,1570.5C 1015.26,1567.26 1012.76,1564.93 1009.5,1563.5C 1008.87,1561 1007.2,1559.67 1004.5,1559.5C 999.5,1556.17 994.5,1552.83 989.5,1549.5C 987.035,1547.16 984.035,1545.66 980.5,1545C 978.934,1544.24 977.601,1544.4 976.5,1545.5C 975.833,1545.5 975.5,1545.17 975.5,1544.5C 975.611,1543.88 975.944,1543.38 976.5,1543C 968.536,1541.48 960.536,1540.15 952.5,1539C 927.502,1538.5 902.502,1538.33 877.5,1538.5C 877.5,1530.5 877.5,1522.5 877.5,1514.5C 901.908,1514.82 926.241,1514.49 950.5,1513.5 Z"/></g>
<g><path style="opacity:0.93" fill="#fefefe" d="M 1336.5,1514.5 C 1383.19,1514.06 1429.85,1514.56 1476.5,1516C 1529.24,1524.78 1567.74,1552.94 1592,1600.5C 1613.06,1644.12 1621.39,1690.12 1617,1738.5C 1613.52,1790.6 1594.35,1835.76 1559.5,1874C 1535.47,1897.01 1506.81,1910.34 1473.5,1914C 1427.83,1914.5 1382.17,1914.67 1336.5,1914.5C 1336.5,1781.17 1336.5,1647.83 1336.5,1514.5 Z M 1359.5,1542.5 C 1396.85,1542.1 1434.18,1542.6 1471.5,1544C 1509.51,1549.25 1539.68,1567.42 1562,1598.5C 1578.96,1625.7 1588.96,1655.37 1592,1687.5C 1595.97,1724.71 1591.97,1761.05 1580,1796.5C 1565.88,1832.28 1541.71,1858.78 1507.5,1876C 1497.52,1880.22 1487.19,1883.22 1476.5,1885C 1437.53,1886.45 1398.53,1886.95 1359.5,1886.5C 1359.5,1771.83 1359.5,1657.17 1359.5,1542.5 Z"/></g>
<g><path style="opacity:0.922" fill="#fefffe" d="M 1693.5,1514.5 C 1761.83,1514.5 1830.17,1514.5 1898.5,1514.5C 1898.5,1523.83 1898.5,1533.17 1898.5,1542.5C 1838.17,1542.5 1777.83,1542.5 1717.5,1542.5C 1717.5,1594.17 1717.5,1645.83 1717.5,1697.5C 1771.17,1697.5 1824.83,1697.5 1878.5,1697.5C 1878.5,1706.83 1878.5,1716.17 1878.5,1725.5C 1824.83,1725.5 1771.17,1725.5 1717.5,1725.5C 1717.5,1779.17 1717.5,1832.83 1717.5,1886.5C 1779.83,1886.5 1842.17,1886.5 1904.5,1886.5C 1904.5,1895.83 1904.5,1905.17 1904.5,1914.5C 1834.17,1914.5 1763.83,1914.5 1693.5,1914.5C 1693.5,1781.17 1693.5,1647.83 1693.5,1514.5 Z"/></g>
<g><path style="opacity:0.89" fill="#fefffe" d="M 2247.5,1514.5 C 2255.42,1514.18 2263.25,1514.52 2271,1515.5C 2271.5,1648.5 2271.67,1781.5 2271.5,1914.5C 2263.5,1914.5 2255.5,1914.5 2247.5,1914.5C 2247.5,1781.17 2247.5,1647.83 2247.5,1514.5 Z"/></g>
<g><path style="opacity:0.911" fill="#fdfdfd" d="M 2710.5,1514.5 C 2717.17,1514.33 2723.84,1514.5 2730.5,1515C 2798,1628.5 2865.5,1742 2933,1855.5C 2933.5,1741.83 2933.67,1628.17 2933.5,1514.5C 2941.83,1514.5 2950.17,1514.5 2958.5,1514.5C 2958.5,1647.83 2958.5,1781.17 2958.5,1914.5C 2951.49,1914.67 2944.49,1914.5 2937.5,1914C 2870.11,1800.72 2802.61,1687.55 2735,1574.5C 2734.5,1687.83 2734.33,1801.17 2734.5,1914.5C 2726.5,1914.5 2718.5,1914.5 2710.5,1914.5C 2710.5,1781.17 2710.5,1647.83 2710.5,1514.5 Z"/></g>
<g><path style="opacity:0.678" fill="#b5b5b5" d="M 611.5,1513.5 C 615.314,1514.37 618.981,1515.37 622.5,1516.5C 619.15,1516.71 615.816,1516.71 612.5,1516.5C 611.614,1515.68 611.281,1514.68 611.5,1513.5 Z"/></g>
<g><path style="opacity:0.165" fill="#acacac" d="M 964.5,1513.5 C 974.723,1515.32 984.723,1517.98 994.5,1521.5C 994.44,1522.04 994.107,1522.38 993.5,1522.5C 985.869,1520.45 978.202,1518.62 970.5,1517C 967.848,1516.65 965.848,1515.48 964.5,1513.5 Z"/></g>
<g><path style="opacity:0.333" fill="#a8a8a8" d="M 623.5,1516.5 C 630.59,1517.39 637.257,1519.39 643.5,1522.5C 636.474,1521.41 629.808,1519.41 623.5,1516.5 Z"/></g>
<g><path style="opacity:0.263" fill="#949494" d="M 643.5,1522.5 C 646.241,1522.71 648.574,1523.71 650.5,1525.5C 647.519,1525.82 645.185,1524.82 643.5,1522.5 Z"/></g>
<g><path style="opacity:0.298" fill="#b2b2b2" d="M 995.5,1522.5 C 998.908,1523.37 1002.24,1524.53 1005.5,1526C 1006.94,1526.38 1007.94,1527.21 1008.5,1528.5C 1003.37,1528.02 999.037,1526.02 995.5,1522.5 Z"/></g>
<g><path style="opacity:0.051" fill="#8a8a8a" d="M 650.5,1525.5 C 653.089,1525.46 655.089,1526.46 656.5,1528.5C 654.181,1528.01 652.181,1527.01 650.5,1525.5 Z"/></g>
<g><path style="opacity:0.114" fill="#a1a1a1" d="M 657.5,1528.5 C 660.814,1530.14 663.814,1532.14 666.5,1534.5C 662.358,1534 659.358,1532 657.5,1528.5 Z"/></g>
<g><path style="opacity:0.169" fill="#a0a0a0" d="M 1009.5,1528.5 C 1014.66,1530.33 1019,1533.33 1022.5,1537.5C 1018.39,1535.61 1014.39,1533.45 1010.5,1531C 1009.75,1530.33 1009.41,1529.5 1009.5,1528.5 Z"/></g>
<g><path style="opacity:0.29" fill="#bababa" d="M 593.5,1539.5 C 590.5,1539.5 587.5,1539.5 584.5,1539.5C 544.833,1539.5 505.167,1539.5 465.5,1539.5C 466.161,1578.18 465.494,1616.51 463.5,1654.5C 463.5,1615.83 463.5,1577.17 463.5,1538.5C 507.003,1538.17 550.337,1538.5 593.5,1539.5 Z"/></g>
<g><path style="opacity:0.29" fill="#c2c2c2" d="M 877.5,1538.5 C 902.502,1538.33 927.502,1538.5 952.5,1539C 960.536,1540.15 968.536,1541.48 976.5,1543C 975.944,1543.38 975.611,1543.88 975.5,1544.5C 969.191,1543.27 962.858,1542.11 956.5,1541C 930.009,1540.06 903.676,1539.23 877.5,1538.5 Z"/></g>
<g><path style="opacity:0.4" fill="#9f9f9f" d="M 584.5,1539.5 C 587.5,1539.5 590.5,1539.5 593.5,1539.5C 600.881,1539.31 608.214,1539.81 615.5,1541C 616.756,1541.42 617.423,1542.25 617.5,1543.5C 606.49,1541.22 595.49,1539.89 584.5,1539.5 Z"/></g>
<g><path style="opacity:0.131" fill="#b5b5b5" d="M 667.5,1534.5 C 676.231,1540.9 683.564,1548.56 689.5,1557.5C 686.448,1556.12 684.282,1553.79 683,1550.5C 677.51,1545.18 672.344,1539.85 667.5,1534.5 Z"/></g>
<g><path style="opacity:0.345" fill="#aaaaaa" d="M 1027.5,1541.5 C 1033.28,1545.94 1037.95,1551.27 1041.5,1557.5C 1040.5,1557.59 1039.67,1557.25 1039,1556.5C 1035.31,1551.32 1031.48,1546.32 1027.5,1541.5 Z"/></g>
<g><path style="opacity:0.576" fill="#b4b4b4" d="M 976.5,1545.5 C 977.601,1544.4 978.934,1544.24 980.5,1545C 984.035,1545.66 987.035,1547.16 989.5,1549.5C 985.268,1547.89 980.935,1546.55 976.5,1545.5 Z"/></g>
<g><path style="opacity:0.722" fill="#aeaeae" d="M 649.5,1557.5 C 654.727,1558.39 658.061,1561.39 659.5,1566.5C 656.458,1563.12 653.125,1560.12 649.5,1557.5 Z"/></g>
<g><path style="opacity:0.463" fill="#979797" d="M 1004.5,1559.5 C 1007.2,1559.67 1008.87,1561 1009.5,1563.5C 1007.61,1562.4 1005.94,1561.06 1004.5,1559.5 Z"/></g>
<g><path style="opacity:0.043" fill="#b3b3b3" d="M 1041.5,1557.5 C 1044.26,1560.68 1046.26,1564.34 1047.5,1568.5C 1045.41,1566.44 1043.57,1564.11 1042,1561.5C 1041.51,1560.21 1041.34,1558.87 1041.5,1557.5 Z"/></g>
<g><path style="opacity:0.11" fill="#aeaeae" d="M 1009.5,1563.5 C 1012.76,1564.93 1015.26,1567.26 1017,1570.5C 1019.55,1573.86 1021.38,1577.53 1022.5,1581.5C 1018.67,1575.18 1014.34,1569.18 1009.5,1563.5 Z"/></g>
<g><path style="opacity:0.631" fill="#b7b7b7" d="M 696.5,1571.5 C 699.249,1576.13 701.249,1581.13 702.5,1586.5C 700.665,1585.88 699.498,1584.54 699,1582.5C 697.56,1578.96 696.726,1575.29 696.5,1571.5 Z"/></g>
<g><path style="opacity:0.267" fill="#a8a8a8" d="M 1047.5,1568.5 C 1051.75,1576.24 1054.41,1584.58 1055.5,1593.5C 1052.64,1585.39 1049.97,1577.05 1047.5,1568.5 Z"/></g>
<g><path style="opacity:0.522" fill="#b7b7b7" d="M 702.5,1587.5 C 702.916,1590.58 703.583,1593.58 704.5,1596.5C 703.5,1596.5 702.5,1596.5 701.5,1596.5C 701.19,1593.29 701.523,1590.29 702.5,1587.5 Z"/></g>
<g><path style="opacity:0.337" fill="#818181" d="M 1024.5,1588.5 C 1025.93,1588.88 1026.76,1589.88 1027,1591.5C 1027.94,1595.11 1028.44,1598.78 1028.5,1602.5C 1027.17,1597.92 1025.84,1593.25 1024.5,1588.5 Z"/></g>
<g><path style="opacity:0.235" fill="#afafaf" d="M 1055.5,1594.5 C 1057.23,1602.6 1057.9,1610.93 1057.5,1619.5C 1055.75,1612.38 1054.75,1604.88 1054.5,1597C 1054.53,1595.93 1054.86,1595.1 1055.5,1594.5 Z"/></g>
<g><path style="opacity:0.749" fill="#bdbdbd" d="M 674.5,1595.5 C 676.328,1598.14 677.495,1601.14 678,1604.5C 678.667,1613.17 678.667,1621.83 678,1630.5C 677.901,1632.65 677.067,1634.32 675.5,1635.5C 678.239,1622.1 677.905,1608.76 674.5,1595.5 Z"/></g>
<g><path style="opacity:0.424" fill="#b4b4b4" d="M 704.5,1602.5 C 705.814,1610.93 705.814,1619.27 704.5,1627.5C 703.167,1619.17 703.167,1610.83 704.5,1602.5 Z"/></g>
<g><path style="opacity:0.729" fill="#b2b2b2" d="M 1029.5,1628.5 C 1029.49,1633.22 1028.99,1637.88 1028,1642.5C 1027.45,1644.76 1026.28,1646.43 1024.5,1647.5C 1026.07,1641.05 1027.73,1634.72 1029.5,1628.5 Z"/></g>
<g><path style="opacity:0.671" fill="#b5b5b5" d="M 1057.5,1626.5 C 1056.1,1638.61 1053.1,1650.28 1048.5,1661.5C 1047.88,1661.08 1047.54,1660.42 1047.5,1659.5C 1050.87,1650.82 1053.04,1641.82 1054,1632.5C 1054.59,1629.98 1055.75,1627.98 1057.5,1626.5 Z"/></g>
<g><path style="opacity:0.129" fill="#9d9d9d" d="M 1024.5,1648.5 C 1024.95,1652.36 1023.61,1655.36 1020.5,1657.5C 1021.93,1654.45 1023.26,1651.45 1024.5,1648.5 Z"/></g>
<g><path style="opacity:0.651" fill="#b1b1b1" d="M 1019.5,1658.5 C 1020.04,1658.56 1020.38,1658.89 1020.5,1659.5C 1017.8,1665.99 1013.47,1670.99 1007.5,1674.5C 1011.83,1669.49 1015.83,1664.16 1019.5,1658.5 Z"/></g>
<g><path style="opacity:0.02" fill="#a2a2a2" d="M 1044.5,1667.5 C 1041.82,1673.54 1038.15,1678.87 1033.5,1683.5C 1033.06,1683.57 1032.73,1683.4 1032.5,1683C 1036.36,1677.65 1040.36,1672.48 1044.5,1667.5 Z"/></g>
<g><path style="opacity:0.149" fill="#909090" d="M 1006.5,1674.5 C 1005.57,1677.09 1003.91,1679.09 1001.5,1680.5C 999.978,1681.56 998.312,1682.23 996.5,1682.5C 999.52,1679.48 1002.85,1676.82 1006.5,1674.5 Z"/></g>
<g><path style="opacity:0.008" fill="#8c8c8c" d="M 1031.5,1685.5 C 1029.5,1688.17 1027.17,1690.5 1024.5,1692.5C 1025.83,1689.17 1028.17,1686.83 1031.5,1685.5 Z"/></g>
<g><path style="opacity:0.398" fill="#b0b0b0" d="M 996.5,1682.5 C 990.578,1687.69 983.578,1690.69 975.5,1691.5C 982.33,1688.33 989.33,1685.33 996.5,1682.5 Z"/></g>
<g><path style="opacity:0.153" fill="#c5c5c5" d="M 603.5,1696.5 C 548.513,1697.47 493.513,1697.8 438.5,1697.5C 442.445,1696.17 446.778,1695.51 451.5,1695.5C 495.495,1696.59 539.495,1696.76 583.5,1696C 589.196,1695.74 594.863,1695.24 600.5,1694.5C 602.038,1694.45 603.038,1695.12 603.5,1696.5 Z"/></g>
<g><path style="opacity:0.982" fill="#fdfdfd" d="M 603.5,1696.5 C 603.5,1705.17 603.5,1713.83 603.5,1722.5C 556.997,1722.17 510.664,1722.5 464.5,1723.5C 455.833,1723.5 447.167,1723.5 438.5,1723.5C 438.5,1714.83 438.5,1706.17 438.5,1697.5C 493.513,1697.8 548.513,1697.47 603.5,1696.5 Z"/></g>
<g><path style="opacity:0.196" fill="#b6b6b6" d="M 1012.5,1700.5 C 1009.39,1702.56 1006.06,1704.39 1002.5,1706C 1022.48,1710.57 1039.32,1720.4 1053,1735.5C 1054.75,1737.73 1056.25,1740.07 1057.5,1742.5C 1042.32,1724.23 1022.99,1712.56 999.5,1707.5C 998.167,1706.83 998.167,1706.17 999.5,1705.5C 1003.5,1703 1007.84,1701.33 1012.5,1700.5 Z"/></g>
<g><path style="opacity:0.353" fill="#898989" d="M 974.5,1691.5 C 971.449,1693.35 968.116,1694.69 964.5,1695.5C 964.5,1704.83 964.5,1714.17 964.5,1723.5C 970.871,1723.06 976.871,1724.06 982.5,1726.5C 975.929,1725.73 969.429,1724.73 963,1723.5C 962.301,1713.48 962.468,1703.48 963.5,1693.5C 967.136,1692.67 970.803,1692.01 974.5,1691.5 Z"/></g>
<g><path style="opacity:0.196" fill="#c0c0c0" d="M 464.5,1723.5 C 510.664,1722.5 556.997,1722.17 603.5,1722.5C 603.217,1723.29 602.717,1723.96 602,1724.5C 556.239,1723.5 510.405,1723.17 464.5,1723.5 Z"/></g>
<g><path style="opacity:0.196" fill="#b4b4b4" d="M 858.5,1696.5 C 860.471,1705.1 861.138,1714.1 860.5,1723.5C 846.167,1723.5 831.833,1723.5 817.5,1723.5C 830.42,1722.5 844.087,1722.17 858.5,1722.5C 858.5,1713.83 858.5,1705.17 858.5,1696.5 Z"/></g>
<g><path style="opacity:0.039" fill="#8c8c8c" d="M 1026.5,1746.5 C 1029.06,1747.54 1031.22,1749.21 1033,1751.5C 1035.62,1754.41 1037.45,1757.74 1038.5,1761.5C 1034.75,1756.36 1030.75,1751.36 1026.5,1746.5 Z"/></g>
<g><path style="opacity:0.989" fill="#fcfcfc" d="M 463.5,1765.5 C 463.5,1806.17 463.5,1846.83 463.5,1887.5C 511.168,1887.67 558.834,1887.5 606.5,1887C 613.425,1886.99 620.092,1886.16 626.5,1884.5C 627.167,1883.83 627.833,1883.17 628.5,1882.5C 644.769,1880.12 659.436,1874.12 672.5,1864.5C 675.394,1863.12 677.894,1861.12 680,1858.5C 682.161,1855.67 684.327,1852.84 686.5,1850C 686.989,1848.86 687.322,1847.69 687.5,1846.5C 687.707,1843.76 688.707,1841.43 690.5,1839.5C 692.19,1836.82 693.69,1833.82 695,1830.5C 695.498,1827.18 695.665,1823.85 695.5,1820.5C 695.5,1820.17 695.5,1819.83 695.5,1819.5C 697.052,1814.6 697.719,1809.43 697.5,1804C 697.719,1798.57 697.052,1793.4 695.5,1788.5C 693.948,1782.25 692.281,1775.92 690.5,1769.5C 690.5,1768.17 690.5,1766.83 690.5,1765.5C 699.506,1765.33 708.506,1765.5 717.5,1766C 718.38,1767.36 718.714,1768.86 718.5,1770.5C 719.702,1778.81 720.868,1787.15 722,1795.5C 722.383,1796.06 722.883,1796.39 723.5,1796.5C 723.5,1797.17 723.5,1797.83 723.5,1798.5C 722.182,1801.26 721.515,1804.42 721.5,1808C 721.089,1816.17 720.589,1824.34 720,1832.5C 718.086,1838.41 716.586,1844.41 715.5,1850.5C 713.457,1857.59 710.124,1863.92 705.5,1869.5C 703.071,1870.26 701.738,1871.93 701.5,1874.5C 700.488,1875.87 699.488,1877.2 698.5,1878.5C 697.448,1878.35 696.448,1878.52 695.5,1879C 691.886,1882.44 688.552,1885.94 685.5,1889.5C 683.795,1891.19 681.795,1892.53 679.5,1893.5C 677.62,1893.23 676.287,1893.9 675.5,1895.5C 668.185,1898.22 660.852,1901.05 653.5,1904C 649.5,1904.83 645.5,1905.67 641.5,1906.5C 641.137,1907.18 640.804,1907.85 640.5,1908.5C 637.946,1909.39 635.279,1909.72 632.5,1909.5C 629.302,1908.96 626.635,1909.63 624.5,1911.5C 562.529,1912.49 500.529,1912.82 438.5,1912.5C 438.5,1863.5 438.5,1814.5 438.5,1765.5C 446.833,1765.5 455.167,1765.5 463.5,1765.5 Z"/></g>
<g><path style="opacity:0.192" fill="#6f6f6f" d="M 690.5,1765.5 C 690.5,1766.83 690.5,1768.17 690.5,1769.5C 688.219,1767.97 688.219,1766.63 690.5,1765.5 Z"/></g>
<g><path style="opacity:0.553" fill="#b9b9b9" d="M 1062.5,1749.5 C 1069.1,1760.86 1073.1,1773.2 1074.5,1786.5C 1073.88,1786.39 1073.38,1786.06 1073,1785.5C 1069.78,1773.28 1066.28,1761.28 1062.5,1749.5 Z"/></g>
<g><path style="opacity:0.016" fill="#a2a2a2" d="M 718.5,1770.5 C 721.267,1778.82 722.933,1787.49 723.5,1796.5C 722.883,1796.39 722.383,1796.06 722,1795.5C 720.868,1787.15 719.702,1778.81 718.5,1770.5 Z"/></g>
<g><path style="opacity:0.416" fill="#9c9c9c" d="M 1041.5,1766.5 C 1042.5,1766.47 1043.16,1766.97 1043.5,1768C 1046.22,1776.94 1047.88,1786.11 1048.5,1795.5C 1046.82,1785.77 1044.48,1776.1 1041.5,1766.5 Z"/></g>
<g><path style="opacity:0.145" fill="#949494" d="M 1074.5,1787.5 C 1076.31,1798.78 1076.64,1810.12 1075.5,1821.5C 1074.24,1820.49 1073.57,1818.99 1073.5,1817C 1074.28,1807 1074.62,1797.17 1074.5,1787.5 Z"/></g>
<g><path style="opacity:0.519" fill="#8b8b8b" d="M 695.5,1788.5 C 697.052,1793.4 697.719,1798.57 697.5,1804C 697.719,1809.43 697.052,1814.6 695.5,1819.5C 696.536,1809.2 696.536,1798.87 695.5,1788.5 Z"/></g>
<g><path style="opacity:0.678" fill="#c8c8c8" d="M 1048.5,1798.5 C 1049.65,1804.99 1049.82,1811.65 1049,1818.5C 1048.9,1820.65 1048.07,1822.32 1046.5,1823.5C 1048.05,1815.25 1048.72,1806.91 1048.5,1798.5 Z"/></g>
<g><path style="opacity:0.863" fill="#c4c4c4" d="M 695.5,1820.5 C 695.665,1823.85 695.498,1827.18 695,1830.5C 693.69,1833.82 692.19,1836.82 690.5,1839.5C 692.28,1833.1 693.947,1826.77 695.5,1820.5 Z"/></g>
<g><path style="opacity:0.212" fill="#b1b1b1" d="M 723.5,1798.5 C 724.188,1812.33 723.021,1826 720,1839.5C 718.943,1843.45 717.443,1847.12 715.5,1850.5C 716.586,1844.41 718.086,1838.41 720,1832.5C 720.589,1824.34 721.089,1816.17 721.5,1808C 721.515,1804.42 722.182,1801.26 723.5,1798.5 Z"/></g>
<g><path style="opacity:0.106" fill="#a6a6a6" d="M 1072.5,1837.5 C 1071.3,1842.65 1069.63,1847.65 1067.5,1852.5C 1066.4,1851.4 1066.24,1850.07 1067,1848.5C 1068.9,1845.46 1070.07,1842.13 1070.5,1838.5C 1070.96,1837.7 1071.62,1837.37 1072.5,1837.5 Z"/></g>
<g><path style="opacity:0.847" fill="#acacac" d="M 687.5,1846.5 C 687.322,1847.69 686.989,1848.86 686.5,1850C 684.327,1852.84 682.161,1855.67 680,1858.5C 677.894,1861.12 675.394,1863.12 672.5,1864.5C 677.53,1858.48 682.53,1852.48 687.5,1846.5 Z"/></g>
<g><path style="opacity:0.129" fill="#a9a9a9" d="M 1066.5,1853.5 C 1064.99,1859.71 1061.99,1865.04 1057.5,1869.5C 1059.06,1865.42 1060.89,1861.42 1063,1857.5C 1063.95,1855.91 1065.12,1854.57 1066.5,1853.5 Z"/></g>
<g><path style="opacity:0.075" fill="#757575" d="M 1057.5,1869.5 C 1056.92,1871.75 1055.59,1873.42 1053.5,1874.5C 1054.14,1872.21 1055.47,1870.54 1057.5,1869.5 Z"/></g>
<g><path style="opacity:0.753" fill="#b3b3b3" d="M 1042.5,1840.5 C 1042.05,1844.64 1040.55,1848.3 1038,1851.5C 1030.29,1861.88 1020.79,1870.05 1009.5,1876C 1007.87,1876.49 1006.2,1876.66 1004.5,1876.5C 1014.68,1871.47 1023.85,1864.8 1032,1856.5C 1035.36,1850.99 1038.86,1845.66 1042.5,1840.5 Z"/></g>
<g><path style="opacity:0.137" fill="#999999" d="M 705.5,1869.5 C 704.516,1871.48 703.183,1873.15 701.5,1874.5C 701.738,1871.93 703.071,1870.26 705.5,1869.5 Z"/></g>
<g><path style="opacity:0.114" fill="#6f6f6f" d="M 1051.5,1876.5 C 1051.26,1878.4 1050.26,1879.74 1048.5,1880.5C 1048.09,1878.03 1049.09,1876.69 1051.5,1876.5 Z"/></g>
<g><path style="opacity:0.131" fill="#818181" d="M 628.5,1882.5 C 627.833,1883.17 627.167,1883.83 626.5,1884.5C 621.527,1885.16 616.527,1885.5 611.5,1885.5C 617.021,1884.41 622.688,1883.41 628.5,1882.5 Z"/></g>
<g><path style="opacity:0.02" fill="#a4a4a4" d="M 698.5,1878.5 C 694.485,1882.51 690.152,1886.18 685.5,1889.5C 688.552,1885.94 691.886,1882.44 695.5,1879C 696.448,1878.52 697.448,1878.35 698.5,1878.5 Z"/></g>
<g><path style="opacity:0.027" fill="#898989" d="M 1044.5,1883.5 C 1043.42,1885.59 1041.75,1886.92 1039.5,1887.5C 1040.58,1885.41 1042.25,1884.08 1044.5,1883.5 Z"/></g>
<g><path style="opacity:0.601" fill="#bdbdbd" d="M 463.5,1765.5 C 465.494,1805.15 466.161,1845.15 465.5,1885.5C 514.167,1885.5 562.833,1885.5 611.5,1885.5C 616.527,1885.5 621.527,1885.16 626.5,1884.5C 620.092,1886.16 613.425,1886.99 606.5,1887C 558.834,1887.5 511.168,1887.67 463.5,1887.5C 463.5,1846.83 463.5,1806.17 463.5,1765.5 Z"/></g>
<g><path style="opacity:0.602" fill="#cbcbcb" d="M 980.5,1882.5 C 980.082,1883.22 979.416,1883.72 978.5,1884C 971.876,1885.28 965.21,1886.28 958.5,1887C 931.835,1887.5 905.169,1887.67 878.5,1887.5C 878.802,1890.06 878.468,1892.39 877.5,1894.5C 877.5,1891.5 877.5,1888.5 877.5,1885.5C 906.169,1885.67 934.835,1885.5 963.5,1885C 969.211,1884.38 974.878,1883.55 980.5,1882.5 Z"/></g>
<g><path style="opacity:0.165" fill="#999999" d="M 1037.5,1889.5 C 1035.37,1891.95 1032.7,1893.62 1029.5,1894.5C 1030.94,1892.92 1032.6,1891.42 1034.5,1890C 1035.45,1889.52 1036.45,1889.35 1037.5,1889.5 Z"/></g>
<g><path style="opacity:0.012" fill="#696969" d="M 679.5,1893.5 C 678.486,1894.67 677.153,1895.34 675.5,1895.5C 676.287,1893.9 677.62,1893.23 679.5,1893.5 Z"/></g>
<g><path style="opacity:0.184" fill="#aaaaaa" d="M 675.5,1895.5 C 664.718,1901.99 653.051,1906.32 640.5,1908.5C 640.804,1907.85 641.137,1907.18 641.5,1906.5C 645.5,1905.67 649.5,1904.83 653.5,1904C 660.852,1901.05 668.185,1898.22 675.5,1895.5 Z"/></g>
<g><path style="opacity:0.318" fill="#949494" d="M 1022.5,1898.5 C 1016.88,1901.6 1010.88,1903.93 1004.5,1905.5C 1005.06,1904.21 1006.06,1903.38 1007.5,1903C 1012.34,1900.91 1017.34,1899.41 1022.5,1898.5 Z"/></g>
<g><path style="opacity:0.604" fill="#929292" d="M 999.5,1906.5 C 995.213,1908.73 990.546,1909.73 985.5,1909.5C 985.918,1908.78 986.584,1908.28 987.5,1908C 991.51,1907.5 995.51,1907 999.5,1906.5 Z"/></g>
<g><path style="opacity:0.375" fill="#868686" d="M 632.5,1909.5 C 630.039,1910.53 627.373,1911.2 624.5,1911.5C 626.635,1909.63 629.302,1908.96 632.5,1909.5 Z"/></g>
<g><path style="opacity:0.382" fill="#919191" d="M 984.5,1909.5 C 980.639,1910.71 976.639,1911.71 972.5,1912.5C 972.791,1911.35 973.624,1910.68 975,1910.5C 978.125,1909.74 981.291,1909.41 984.5,1909.5 Z"/></g>
</svg>
