<?xml version="1.0" encoding="UTF-8" standalone="no" ?>
<!DOCTYPE svg PUBLIC "-//W3C//DTD SVG 1.1//EN" "http://www.w3.org/Graphics/SVG/1.1/DTD/svg11.dtd">
<svg xmlns="http://www.w3.org/2000/svg" xmlns:xlink="http://www.w3.org/1999/xlink" version="1.1" width="150" height="110" viewBox="0 0 150 110" xml:space="preserve">
<desc>Created with Fabric.js 5.2.4</desc>
<defs>
</defs>
<g transform="matrix(1 0 0 1 75 55)" id="cd971f3e-1a41-4c09-8f68-5b2417e6659c"  >
<rect style="stroke: none; stroke-width: 1; stroke-dasharray: none; stroke-linecap: butt; stroke-dashoffset: 0; stroke-linejoin: miter; stroke-miterlimit: 4; fill: rgb(255,255,255); fill-rule: nonzero; opacity: 1; visibility: hidden;" vector-effect="non-scaling-stroke"  x="-75" y="-55" rx="0" ry="0" width="150" height="110" />
</g>
<g transform="matrix(Infinity NaN NaN Infinity 0 0)" id="927c44ba-1434-4814-b8ba-6240bd15f8f6"  >
</g>
<g transform="matrix(0.31 0 0 0.31 71.81 60.33)"  >
<g style="" vector-effect="non-scaling-stroke"   >
		<g transform="matrix(1 0 0 1 -264.42 -192.91)" id="backgroundrect"  >
<rect style="stroke: none; stroke-width: 1; stroke-dasharray: none; stroke-linecap: butt; stroke-dashoffset: 0; stroke-linejoin: miter; stroke-miterlimit: 4; fill: none; fill-rule: nonzero; opacity: 1;" vector-effect="non-scaling-stroke"  x="-50" y="-50" rx="0" ry="0" width="100" height="100" />
</g>
		<g transform="matrix(0.1 0 0 -0.1 -172.34 -174.32)" id="svg_2"  >
<path style="stroke: none; stroke-width: 1; stroke-dasharray: none; stroke-linecap: butt; stroke-dashoffset: 0; stroke-linejoin: miter; stroke-miterlimit: 4; fill: rgb(255,255,255); fill-opacity: 0.5; fill-rule: nonzero; opacity: 1;" vector-effect="non-scaling-stroke"  transform=" translate(-1420.81, -13984.05)" d="M 143.3329815411298 13984.228701777016 L 143.3329815411298 13428.645151039698 L 262.55983854229663 13428.645151039698 L 381.78669554346345 13428.645151039698 L 381.78669554346345 13884.274734014689 L 381.78669554346345 14340.26911249246 L 981.5202818927293 14338.445134978549 C 1629.8444363783196 14336.621157464637 1739.6231273529788 14334.432384447944 1810.2594162178211 14322.39413285613 C 1924.0873212038407 14303.424766711456 2003.7218634272617 14281.901832047304 2081.5567549789666 14249.435032299687 C 2253.8733067957473 14177.935113754373 2359.6027837590464 14076.886759483697 2417.1916052539495 13928.779785354118 C 2446.43592866933 13853.631911780982 2447.785666673117 13840.499273680822 2445.9860160014014 13695.310663573498 C 2443.7364526617566 13553.040417488433 2444.1863653296855 13557.41796352182 2409.0931772312288 13467.678269837394 C 2400.544836540579 13445.790539670461 2399.195098536792 13438.859425117598 2403.6942252160816 13437.40024310647 C 2406.843613891584 13436.305856598123 2461.7329593789136 13435.94106109534 2525.1706455568933 13436.670652100905 L 2640.7982012146285 13437.765038609252 L 2648.8966292373493 13446.520130676025 C 2657.444969927999 13455.275222742797 2675.4414766451564 13513.27770768517 2688.039031347166 13572.739374638672 C 2699.2868480453894 13623.4459495254 2701.986324052963 13788.698312285744 2692.5381580264557 13852.902320775414 C 2678.14095265273 13952.856288537741 2651.146192576994 14033.476094652613 2606.1549257841007 14107.529581717403 C 2466.681998726132 14337.715543972983 2186.3864066064075 14481.080176566395 1789.5634334930899 14524.85563690026 C 1707.6793279300243 14533.975524469815 1440.881115848168 14537.258683994854 765.1122886189128 14538.353070503203 L 143.33298154112936 14539.447457011549 L 143.33298154112936 13984.228701777014 z" stroke-linecap="round" />
</g>
		<g transform="matrix(0.1 0 0 -0.1 72.89 -71.87)" id="svg_3"  >
<path style="stroke: none; stroke-width: 1; stroke-dasharray: none; stroke-linecap: butt; stroke-dashoffset: 0; stroke-linejoin: miter; stroke-miterlimit: 4; fill: rgb(255,255,255); fill-opacity: 0.5; fill-rule: nonzero; opacity: 1;" vector-effect="non-scaling-stroke"  transform=" translate(-3873.11, -12959.56)" d="M 3552.321266438643 14538.717866005985 C 3550.521615766927 14537.623479497639 3549.1718777631404 13825.90745356953 3549.1718777631404 12957.32936144507 L 3549.1718777631404 11378.49442540363 L 3665.699258756734 11378.49442540363 L 3781.7767270823983 11378.49442540363 L 3784.476203089972 11396.004609537178 C 3786.275853761688 11405.489292609516 3788.9753297692614 11743.65472368863 3790.325067773048 12147.483345268547 L 3793.4744564485504 12881.451896866369 L 3995.4852443486407 12881.451896866369 L 4197.046119580802 12881.451896866369 L 4197.046119580802 12981.770660131479 L 4197.046119580802 13082.089423396588 L 3994.585419012783 13082.089423396588 L 3792.124718444764 13082.089423396588 L 3791.224893108906 13810.950837955459 L 3789.8751551051196 14539.447457011549 L 3672.4479487756685 14540.541843519895 C 3608.110437261831 14540.906639022678 3554.1209171103596 14540.177048017113 3552.3212664386438 14538.717866005984 z" stroke-linecap="round" />
</g>
		<g transform="matrix(0.1 0 0 -0.1 218.9 -71.87)" id="svg_4"  >
<path style="stroke: none; stroke-width: 1; stroke-dasharray: none; stroke-linecap: butt; stroke-dashoffset: 0; stroke-linejoin: miter; stroke-miterlimit: 4; fill: rgb(255,255,255); fill-opacity: 0.5; fill-rule: nonzero; opacity: 1;" vector-effect="non-scaling-stroke"  transform=" translate(-5333.23, -12959.6)" d="M 4390.508566790242 14441.317466763132 L 4390.508566790242 14340.63390799524 L 4574.072935305247 14340.269112492457 C 4818.375513990656 14340.269112492457 5103.6201454575985 14334.797179950723 5150.860975590137 14329.690042911772 C 5517.989712620145 14290.656924114075 5757.793164626266 14139.631585962237 5832.0287548345395 13901.055327142667 C 5853.174650227199 13832.838568122392 5858.573602242346 13786.144743766268 5855.874126234773 13691.297913042892 C 5853.624562895128 13604.476583380725 5849.575348883768 13578.211307180405 5830.6790168307525 13517.290458215773 C 5780.738710690641 13358.96921000829 5655.213076338469 13234.938739062336 5473.448358495181 13164.168411522587 C 5418.109100339922 13142.280681355654 5353.321676158157 13123.311315210978 5294.383116659466 13111.273063619166 C 5273.687133934735 13106.895517585779 5248.941937198644 13101.788380546828 5239.943683840066 13099.964403032918 L 5222.847002458767 13096.316448005096 L 5222.847002458767 12987.242592673214 L 5222.847002458767 12878.168737341332 L 5237.694120500421 12876.34475982742 C 5245.342635855213 12875.250373319073 5276.386609942309 12871.602418291252 5306.080846025619 12868.684054268993 C 5473.898271163111 12850.809074632665 5613.821110889008 12813.235137846097 5733.497880558104 12753.773470892595 C 5883.768711646368 12679.355188325022 5985.4489745983055 12557.14869489298 6023.241638704336 12405.028970232794 C 6048.436748108356 12303.615820459338 6046.63709743664 12139.82263971012 6019.192424692976 12041.692649461706 C 5978.700284579372 11898.328016868294 5886.91810032187 11788.159775028063 5742.946046584611 11709.728741929886 C 5651.6137749950385 11660.116553551505 5564.330717416826 11632.392095340056 5409.560759649273 11603.20845511748 C 5297.0825926670395 11582.415111458893 5300.231981342542 11582.415111458893 4830.073243356809 11579.131951933852 C 4590.719704018617 11577.672769922723 4393.6579554657455 11575.48399690603 4392.758130129888 11574.754405900465 C 4388.708916118528 11571.471246375426 4380.610488095806 11381.412789425889 4384.209789439238 11378.49442540363 C 4389.608741454385 11374.481674873026 5180.105299005518 11380.683198420324 5253.890976545863 11385.790335459275 C 5504.042419914349 11402.206133084474 5731.698229886389 11460.208618026847 5898.165917020093 11550.313107214055 C 5966.552642545291 11587.52224849784 6059.684564806579 11660.481349054286 6110.974608950477 11717.38944748831 C 6190.1592385059685 11805.305163658826 6249.997623340517 11932.253998627037 6272.943169404893 12060.662015606378 C 6288.2402001144765 12146.753754262982 6285.990636774832 12307.263775487158 6268.444042725603 12392.625923138197 C 6243.248933321583 12513.37323455911 6194.2084525173295 12618.43433936039 6120.422774976984 12708.174033044816 C 6058.7847394707205 12783.321906617952 5993.547402621026 12836.582050024157 5902.215131031452 12886.194238402539 C 5823.480414143889 12928.875312228058 5694.355478448286 12975.2043410814 5600.323730851139 12994.538502728858 C 5579.627748126408 12998.916048762245 5560.731416073393 13004.023185801196 5558.931765401677 13005.482367812325 C 5556.682202062032 13006.941549823454 5582.77713680191 13020.074187923614 5616.52058689658 13034.666008034903 C 5731.698229886387 13083.913400910502 5815.831898789097 13135.714362305578 5883.3187989784365 13199.188779789683 C 5985.448974598304 13295.129997021406 6062.384040814151 13427.18596902857 6088.47897555403 13550.85164447174 C 6113.224172290121 13667.951000864832 6109.174958278761 13835.39213664187 6079.480722195451 13944.465991973753 C 6002.095743311675 14227.547302132754 5752.844125279046 14420.524123104547 5364.569492856379 14497.860769694378 C 5203.050845069893 14529.962773939213 5104.070058125528 14535.799501983729 4668.554595570322 14539.812252514334 L 4390.508566790242 14542.001025531026 L 4390.508566790242 14441.317466763134 z" stroke-linecap="round" />
</g>
		<g transform="matrix(0.1 0 0 -0.1 -221.13 -74.18)" id="svg_5"  >
<path style="stroke: none; stroke-width: 1; stroke-dasharray: none; stroke-linecap: butt; stroke-dashoffset: 0; stroke-linejoin: miter; stroke-miterlimit: 4; fill: rgb(255,255,255); fill-opacity: 0.5; fill-rule: nonzero; opacity: 1;" vector-effect="non-scaling-stroke"  transform=" translate(-932.93, -12982.68)" d="M 911.7838183637441 13083.183809904938 L 143.33298154112924 13082.089423396592 L 143.33298154112924 12981.770660131482 L 143.33298154112924 12881.451896866372 L 932.9297137564041 12881.451896866372 L 1722.526445971679 12881.451896866372 L 1721.6266206358212 12982.865046639829 L 1720.2768826320344 13083.913400910504 L 1700.0308125752324 13083.913400910504 C 1688.7829958770092 13083.913400910504 1334.251813549011 13083.548605407721 911.7838183637443 13083.18380990494 z" stroke-linecap="round" />
</g>
		<g transform="matrix(0.1 0 0 -0.1 -163.45 28.58)" id="svg_6"  >
<path style="stroke: none; stroke-width: 1; stroke-dasharray: none; stroke-linecap: butt; stroke-dashoffset: 0; stroke-linejoin: miter; stroke-miterlimit: 4; fill: rgb(255,255,255); fill-opacity: 0.5; fill-rule: nonzero; opacity: 1;" vector-effect="non-scaling-stroke"  transform=" translate(-1509.74, -11955.05)" d="M 143.3329815411298 11954.871319799538 L 143.3329815411298 11378.494425403635 L 884.789058288009 11378.494425403635 C 1762.1187607494253 11378.494425403635 1860.6496350258612 11380.683198420327 2019.4688068047744 11404.030110598389 C 2344.755665717392 11451.818321462859 2577.3605150366498 11561.98656330309 2722.2323941097657 11736.358813632989 C 2778.021564932953 11803.845981647699 2830.6613470806383 11908.542290946196 2853.1569804770847 11996.822802619492 C 2873.852963201816 12076.713017728798 2876.5524392093894 12104.072680437464 2876.10252654146 12213.876126774912 C 2875.652613873531 12343.013734759817 2864.854709843237 12418.891199338519 2835.1604737599273 12499.511005453389 L 2823.462744393775 12531.613009698223 L 2702.8861493888217 12530.518623189877 C 2636.748987203269 12529.789032184313 2580.959816380081 12528.329850173184 2579.1601657083656 12526.505872659272 C 2577.3605150366498 12525.046690648143 2583.209379719726 12504.61814249234 2592.2076330783048 12480.906434811495 C 2630.450209852264 12381.682058054732 2638.098725207056 12334.258642693043 2634.4994238636245 12202.932261691445 C 2632.24986052398 12121.947660073793 2630.4502098522644 12104.072680437464 2620.5521311578277 12065.404357142548 C 2570.1619123497876 11872.792331673538 2459.4833960392702 11754.598588772098 2249.3741801164592 11669.966032126624 C 2164.79059854582 11636.040050367877 2068.9592002769577 11611.96354718425 1947.482779936146 11593.72377204514 C 1871.4475390561565 11582.050315956109 1722.0765333037514 11579.861542939416 1004.0159152891764 11578.037565425504 L 381.78669554346413 11576.578383414375 L 381.78669554346413 12054.095696556298 L 381.78669554346413 12531.248214195439 L 262.5598385422973 12531.248214195439 L 143.3329815411305 12531.248214195439 L 143.3329815411305 11954.871319799535 z" stroke-linecap="round" />
</g>
		<g transform="matrix(0.1 0 0 -0.1 -274.33 199.6)" id="svg_7"  >
<path style="stroke: none; stroke-width: 1; stroke-dasharray: none; stroke-linecap: butt; stroke-dashoffset: 0; stroke-linejoin: miter; stroke-miterlimit: 4; fill: rgb(255,255,255); fill-opacity: 0.5; fill-rule: nonzero; opacity: 1;" vector-effect="non-scaling-stroke"  transform=" translate(-400.91, -10244.89)" d="M 617.0910208702944 10525.96733540159 C 607.192942175858 10524.872948893244 602.2439028286396 10522.319380373769 601.7939901607108 10518.306629843164 C 601.3440774927818 10515.023470318125 599.994339488995 10459.93934939801 598.1946888172794 10396.464931913903 L 595.4952128097058 10280.82475753194 L 559.5021993753912 10306.360442726695 C 507.7622425635641 10342.475197502134 481.2173951557571 10353.054267082818 430.82717634771683 10357.431813116205 C 338.5950794222859 10365.092518674632 276.05721858016443 10349.041516552214 219.368222421119 10302.712487698873 C 198.67223969638815 10285.931894570891 184.72494699059126 10269.880892448473 172.12739228858118 10249.817139795452 L 154.58079823935284 10220.633499572874 L 154.58079823935284 10160.442241613808 L 154.58079823935284 10099.886188151959 L 174.37695562822583 10069.608161421034 C 198.2223270284592 10032.76381564003 231.96577712312904 10004.6745619258 275.1573932443065 9985.340400278343 C 316.54935869376817 9967.100625139232 351.1926341242959 9961.628692597498 410.13119362298596 9964.182261116974 C 478.0680064802546 9966.73582963645 511.36154390699556 9979.138876731045 570.7500160736145 10023.643928070474 L 597.7447761493504 10044.072476226278 L 598.1946888172794 10017.442404523175 C 598.1946888172794 10002.485788909104 600.444252156924 9984.610809272775 603.5936408324266 9977.679694719913 C 608.5426801796448 9966.006238630882 610.7922435192895 9964.911852122535 628.3388375685178 9963.81746561419 L 647.2351696215329 9962.723079105843 L 646.3353442856751 10244.710002756497 C 644.9856062818883 10492.04135364284 644.0857809460305 10526.696926407152 638.2369162629543 10527.061721909935 C 634.6376149195229 10527.061721909935 624.7395362250863 10526.696926407152 617.0910208702945 10525.967335401589 z M 487.0662598388332 10313.65635278234 C 506.4125045597773 10305.995647223914 524.4090112769345 10294.686986637666 542.4055179940918 10279.365575520811 C 584.2473961114824 10242.88602524259 597.2948634814215 10214.431976025577 597.7447761493504 10159.712650608244 C 597.7447761493504 10083.105595023979 548.7042953450969 10026.197496589952 460.9713250989552 10002.120993406326 C 431.72700168357466 9994.095492345117 365.1399268300928 9993.730696842335 331.84638940335185 10001.756197903544 C 303.05197865590026 10008.687312456406 258.9605371988649 10033.128611142814 240.06420514584983 10052.827568293054 C 203.62127904360636 10090.766300582405 195.97276368881455 10112.289235246555 198.2223270284592 10170.656515691711 C 200.02197770017494 10221.727886081222 210.36996906254035 10243.250820745372 247.71272050064167 10275.352824990208 C 276.9570439160222 10300.523714682182 290.45442395389017 10308.549215743391 322.84813604477324 10319.493080826856 C 345.79368210914873 10327.518581888065 352.99228479601163 10328.248172893629 402.93259093612306 10326.7889908825 C 453.7727224120923 10325.329808871371 460.07149976309734 10324.600217865807 487.0662598388333 10313.65635278234 z" stroke-linecap="round" />
</g>
		<g transform="matrix(0.1 0 0 -0.1 57.93 174.32)" id="svg_8"  >
<path style="stroke: none; stroke-width: 1; stroke-dasharray: none; stroke-linecap: butt; stroke-dashoffset: 0; stroke-linejoin: miter; stroke-miterlimit: 4; fill: rgb(255,255,255); fill-opacity: 0.5; fill-rule: nonzero; opacity: 1;" vector-effect="non-scaling-stroke"  transform=" translate(-3723.53, -10497.69)" d="M 3699.8926215193324 10515.753061323689 C 3684.5955908097485 10503.714809731875 3685.4954161456067 10491.31176263728 3702.592097526906 10479.63830654825 C 3718.7889535723475 10468.694441464782 3725.5376435912813 10467.964850459219 3740.834674300865 10476.35514702321 C 3756.131705010449 10484.38064808442 3761.980569693525 10497.51328618458 3755.231879674591 10507.727560262481 C 3743.08423764051 10526.696926407156 3717.8891282364893 10530.34488143498 3699.8926215193324 10515.75306132369 z" stroke-linecap="round" />
</g>
		<g transform="matrix(0.1 0 0 -0.1 -45.38 206.51)" id="svg_9"  >
<path style="stroke: none; stroke-width: 1; stroke-dasharray: none; stroke-linecap: butt; stroke-dashoffset: 0; stroke-linejoin: miter; stroke-miterlimit: 4; fill: rgb(255,255,255); fill-opacity: 0.5; fill-rule: nonzero; opacity: 1;" vector-effect="non-scaling-stroke"  transform=" translate(-2690.41, -10175.71)" d="M 2635.8491618674097 10372.023633227494 C 2551.2655802967706 10359.255790630117 2493.6767588018674 10301.98289669331 2510.323527515238 10246.898775773194 C 2514.8226541945273 10231.212569153558 2520.6715188776034 10223.916659097915 2540.917588934405 10207.500861472714 C 2570.161912349786 10184.153949294652 2599.406235765166 10174.304470719531 2696.5873720378154 10156.794286585986 C 2762.2746215554394 10144.756034994172 2800.5171983293985 10134.176965413488 2817.613879710698 10123.233100330022 C 2863.9548845073778 10093.684664604663 2843.708814450576 10037.141361673419 2780.2711282725963 10017.077609020396 C 2759.1252328799364 10010.511289970316 2745.6278528420685 10009.41690346197 2698.8369353774597 10009.052107959187 C 2634.4994238636223 10009.052107959187 2606.6048384520286 10013.794449495355 2547.666278953339 10036.04697516507 L 2509.8736148473085 10050.273999773577 L 2500.87536148873 10039.694930192893 C 2495.9263221415117 10033.858202148376 2493.226846133938 10026.927087595515 2494.576584137725 10023.643928070474 C 2498.6257981490853 10014.524040500919 2557.1144449798467 9993.36590133955 2599.8561484330953 9984.97560477556 C 2647.996803901491 9975.855717206005 2725.831695453196 9975.126126200441 2771.2728749140183 9983.51642276443 C 2873.852963201815 10002.485788909105 2920.193967998495 10084.564777035106 2859.4557578280887 10140.743284463566 C 2838.7597751033577 10160.077446111023 2817.163967042769 10167.008560663886 2713.234140751186 10187.801904322472 C 2607.504663787887 10208.960043483841 2576.9106023687195 10219.903908567307 2562.9633096629227 10240.697252225893 C 2552.1654056326283 10257.113049851092 2552.615318300557 10279.000780018026 2565.2128730025674 10298.699737168266 C 2583.6592923876537 10328.97776389919 2623.7015198333283 10342.475197502132 2695.6875467019577 10342.475197502132 C 2743.378289502424 10342.475197502132 2778.021564932952 10336.638469457615 2822.1130063899873 10321.681853843545 C 2850.007591801581 10312.197170771207 2849.557679133652 10312.197170771207 2861.255408499804 10328.977763899189 C 2864.4047971753066 10333.720105435357 2864.4047971753066 10337.003264960398 2860.8054958318753 10340.65121998822 C 2854.5067184808704 10346.852743535517 2818.0637923786267 10359.255790630114 2786.5699056236017 10366.186905182974 C 2755.5259315365056 10372.753224233054 2664.1936599469323 10376.036383758094 2635.8491618674097 10372.02363322749 z" stroke-linecap="round" />
</g>
		<g transform="matrix(0.1 0 0 -0.1 156.43 214.77)" id="svg_10"  >
<path style="stroke: none; stroke-width: 1; stroke-dasharray: none; stroke-linecap: butt; stroke-dashoffset: 0; stroke-linejoin: miter; stroke-miterlimit: 4; fill: rgb(255,255,255); fill-opacity: 0.5; fill-rule: nonzero; opacity: 1;" vector-effect="non-scaling-stroke"  transform=" translate(-4708.56, -10093.2)" d="M 4651.457914189023 10371.658837724712 C 4599.7179573771955 10363.633336663503 4561.475380603237 10346.123152529957 4522.332978493419 10311.832375268428 C 4451.696689628578 10250.911526303798 4437.74939692278 10163.360605636066 4485.440139723247 10086.023959046235 C 4504.3364717762615 10056.110727818093 4554.726690584303 10015.253631506484 4592.969267358261 9999.202629384068 C 4621.763678105713 9987.164377792255 4623.563328777429 9986.799582289474 4687.450927623337 9985.705195781125 C 4727.043242401082 9984.610809272779 4761.68651783161 9986.069991283908 4776.083723205336 9988.623559803384 C 4804.878133952788 9993.730696842335 4846.720012070178 10015.253631506486 4884.06276350828 10044.437271729063 L 4912.407261587803 10066.325001895995 L 4912.407261587803 10035.682179662288 C 4911.957348919874 9985.705195781124 4904.308833565083 9934.998620894396 4894.410754870646 9916.394050252502 C 4868.765732798697 9869.700225896378 4803.978308616931 9842.705358690493 4717.595076374576 9842.705358690493 C 4650.558088853165 9842.705358690493 4597.468394037551 9855.47320128787 4540.779397878506 9884.656841510448 L 4514.6844631386275 9898.154275113391 L 4504.336471776262 9887.94000103549 C 4498.487607093186 9882.103272990973 4493.988480413897 9875.172158438112 4493.988480413897 9872.618589918637 C 4493.988480413897 9865.322679862993 4557.426166591877 9833.950266623722 4590.719704018617 9825.195174556948 C 4650.558088853165 9809.14417243453 4766.63555717883 9806.955399417837 4820.1751646623725 9821.182424026343 C 4875.064510149702 9835.774244137632 4919.155951606737 9869.335430393596 4938.952108995611 9911.286913213551 C 4956.04879037691 9947.40166798899 4958.298353716555 9975.490921703222 4959.198179052412 10176.128448233441 L 4959.648091720342 10369.470064708017 L 4944.800973678687 10373.118019735839 C 4934.452982316322 10375.306792752532 4928.604117633246 10375.306792752532 4925.004816289814 10372.388428730275 C 4922.305340282241 10370.199655713583 4918.706038938809 10353.054267082818 4917.356300935022 10334.814491943707 C 4915.556650263306 10313.656352782338 4912.857174255732 10300.523714682178 4909.2578729123015 10299.794123676615 C 4906.558396904728 10299.064532671051 4891.711278863073 10307.454829235041 4876.864160821418 10318.398694318508 C 4842.67079805882 10343.934379513263 4817.475688654799 10356.702222110642 4785.5318892318455 10364.727723171849 C 4755.837653148536 10372.388428730275 4680.702237604404 10376.40117926088 4651.4579141890235 10371.658837724712 z M 4780.132937216697 10332.990514429797 C 4793.1804045866365 10330.072150407539 4815.226125315154 10320.952262837984 4830.073243356809 10312.197170771211 C 4897.11023087822 10272.069665465167 4922.755252950169 10217.350340047835 4908.807960244372 10144.391239491391 C 4902.509182893367 10111.924439743774 4889.9116281913575 10091.49589158797 4859.767479440119 10064.865819884868 C 4817.475688654799 10028.021474103864 4753.588089808892 10010.146494467535 4680.702237604404 10015.618427009269 C 4617.714464094353 10019.995973042656 4550.677476572943 10057.569909829224 4522.78289116135 10103.898938682565 C 4510.18533645934 10124.692282341151 4509.7354237914105 10127.61064636341 4509.7354237914105 10178.317221250138 C 4509.7354237914105 10229.753387142431 4510.18533645934 10231.942160159124 4523.232803829278 10252.73550381771 C 4540.329485210577 10280.45996202916 4579.921799988323 10312.197170771211 4613.215337415064 10325.694604374154 C 4654.157390196597 10341.745606496572 4726.593329733155 10345.02876602161 4780.132937216697 10332.990514429797 z" stroke-linecap="round" />
</g>
		<g transform="matrix(0.1 0 0 -0.1 291.89 206.25)" id="svg_11"  >
<path style="stroke: none; stroke-width: 1; stroke-dasharray: none; stroke-linecap: butt; stroke-dashoffset: 0; stroke-linejoin: miter; stroke-miterlimit: 4; fill: rgb(255,255,255); fill-opacity: 0.5; fill-rule: nonzero; opacity: 1;" vector-effect="non-scaling-stroke"  transform=" translate(-6063.16, -10178.37)" d="M 5846.425960208264 10372.388428730275 C 5845.526134872406 10370.929246719146 5842.826658864832 10282.283939543067 5841.027008193117 10175.398857227878 L 5837.877619517614 9981.327649747738 L 5860.82316558199 9981.327649747738 L 5884.218624314294 9981.327649747738 L 5884.218624314294 10086.388754549016 C 5884.218624314294 10144.026443988607 5886.468187653939 10203.123315439327 5888.717750993584 10217.715135550614 C 5897.266091684233 10270.245687951254 5926.510415099614 10304.536465212781 5982.299585922801 10326.788990882496 L 6016.4929486854 10340.65121998822 L 6074.981595516161 10340.65121998822 C 6128.971115667633 10340.65121998822 6136.169718354496 10339.921628982656 6158.665351750942 10331.166536915882 C 6209.055570558982 10311.832375268425 6232.001116623358 10281.919144040283 6239.64963197815 10225.375841109038 C 6241.899195317795 10206.406474964364 6244.148758657439 10143.661648485822 6244.148758657439 10086.023959046232 L 6244.148758657439 9980.962854244954 L 6265.744566718028 9982.0572407533 L 6286.890462110688 9983.151627261646 L 6288.240200114475 10093.684664604658 C 6290.03985078619 10256.383458845527 6280.141772091754 10296.875759654353 6229.301640615785 10333.720105435357 C 6200.957142536262 10354.14865359116 6180.71107247946 10362.903745657935 6144.268146377217 10369.834860210796 C 6061.034302810364 10385.885862333214 5979.150197247299 10369.105269205233 5918.411987076894 10323.870626860236 C 5902.665043699381 10311.832375268423 5888.717750993585 10302.347692196086 5887.3680129897975 10302.347692196086 C 5886.46818765394 10302.347692196086 5884.218624314295 10317.304307810158 5883.318798978437 10335.544082949269 C 5881.519148306722 10370.199655713579 5878.3697596312195 10375.306792752532 5858.573602242346 10375.306792752532 C 5853.174650227199 10375.306792752532 5847.775698212052 10373.847610741403 5846.425960208265 10372.388428730274 z" stroke-linecap="round" />
</g>
		<g transform="matrix(0.1 0 0 -0.1 -150.34 206.99)" id="svg_12"  >
<path style="stroke: none; stroke-width: 1; stroke-dasharray: none; stroke-linecap: butt; stroke-dashoffset: 0; stroke-linejoin: miter; stroke-miterlimit: 4; fill: rgb(255,255,255); fill-opacity: 0.5; fill-rule: nonzero; opacity: 1;" vector-effect="non-scaling-stroke"  transform=" translate(-1640.8, -10170.91)" d="M 1577.2046542306343 10366.186905182978 C 1541.21164079632 10358.161404121769 1507.46819070165 10342.11040199935 1480.0235179579852 10319.857876329637 C 1381.942556349478 10241.062047728677 1377.8933423381177 10107.546893710387 1471.9250899352644 10031.304633628903 C 1538.9620774566752 9976.950103714353 1667.1871878164206 9955.062373547418 1756.2698960663492 9982.786831758867 C 1773.8164901155776 9988.2587643006 1792.7128221685928 9995.554674356245 1798.5616868516688 9999.202629384066 C 1808.4597655461052 10005.404152931364 1808.9096782140343 10006.133743936929 1801.7110755271713 10017.077609020394 C 1797.6618615158109 10023.643928070474 1792.7128221685925 10028.751065109425 1790.463258828948 10028.751065109425 C 1788.2136954893033 10028.751065109425 1772.4667521117908 10023.279132567692 1755.8199833984204 10017.077609020394 C 1727.9253979868267 10006.133743936927 1719.826969964106 10005.03935742858 1674.8357031712128 10003.944970920234 C 1601.949850966726 10001.756197903542 1558.3083221776196 10014.159244998136 1503.868889358219 10052.097977287487 C 1474.6245659428384 10072.16172994051 1438.181639840595 10138.919306949654 1450.779194542605 10149.133581027558 C 1453.0287578822497 10150.95755854147 1545.2608548076805 10153.511127060945 1666.2873624805632 10154.970309072074 L 1877.746316407161 10157.52387759155 L 1874.5969277316585 10194.003427869771 C 1870.997626388227 10234.130933175815 1866.9484123768666 10246.898775773192 1848.5019929917805 10276.812007001336 C 1823.7567962556893 10316.574716804598 1763.9184114211414 10352.689471580037 1701.830463246949 10365.822109680197 C 1668.5369258202081 10372.75322423306 1607.3488029818734 10372.75322423306 1577.204654230635 10366.18690518298 z M 1698.6810745714458 10334.084900938144 C 1734.2241753378314 10327.883377390846 1770.667101440075 10307.819624737824 1797.6618615158109 10280.459962029157 C 1818.8077569084708 10258.572231862225 1829.605660938765 10235.225319684163 1833.6548749501253 10203.123315439327 L 1836.354350957699 10181.965176277958 L 1639.7425150727559 10181.965176277958 C 1454.378495886036 10181.965176277958 1443.1306791878128 10182.32997178074 1445.3802425274575 10188.531495328038 C 1446.7299805312443 10191.814654853077 1449.8793692067468 10202.758519936544 1452.5788452143204 10212.607998511665 C 1465.1763999163304 10258.572231862225 1510.6175793771527 10306.360442726695 1561.4577108531219 10327.153786385281 C 1587.102732925071 10337.368060463183 1593.851422944005 10338.827242474312 1630.2943490462483 10338.827242474312 C 1652.789982442695 10338.827242474312 1683.3840438618622 10336.638469457619 1698.6810745714458 10334.084900938144 z" stroke-linecap="round" />
</g>
		<g transform="matrix(0.1 0 0 -0.1 58.01 206.52)" id="svg_13"  >
<path style="stroke: none; stroke-width: 1; stroke-dasharray: none; stroke-linecap: butt; stroke-dashoffset: 0; stroke-linejoin: miter; stroke-miterlimit: 4; fill: rgb(255,255,255); fill-opacity: 0.5; fill-rule: nonzero; opacity: 1;" vector-effect="non-scaling-stroke"  transform=" translate(-3724.36, -10175.61)" d="M 3703.0420101948357 10175.76365273066 L 3704.3917481986223 9979.503672233826 L 3724.637818255424 9979.503672233826 L 3744.8838883122257 9979.503672233826 L 3746.2336263160123 10169.926924686144 C 3747.13345165187 10381.143520797048 3748.483189655657 10371.65883772471 3717.4392155685605 10371.65883772471 L 3702.1421848589766 10371.65883772471 L 3703.0420101948343 10175.763652730659 z" stroke-linecap="round" />
</g>
</g>
</g>
</svg>